# xmcd CD database file
#
# Track frame offsets:
#	150
#	11974
#	29830
#	45464
#	57730
#	75461
#	91457
#	113913
#	129422
#
# Disc length: 1904 seconds
#
# Revision: 0
# Processed by: cddbd v1.5.1PL0 Copyright (c) Steve Scherf et al.
# Submitted via: CDex 1.51
#
DISCID=78076e09
DTITLE=Mary Kadderly - Christmas Memories
DYEAR=2002
DGENRE=Jazz
TTITLE0=Winter Wonderland
TTITLE1=Silver Bells
TTITLE2=Christmas Memories
TTITLE3=White Christmas
TTITLE4=Silent Night
TTITLE5=God Rest Ye Merry, Gentlemen
TTITLE6=Have Yourself A Merry Christmas
TTITLE7=Santa Claus Is Coming to Town
TTITLE8=Christmas Time Is Here
EXTD=YEAR: 2002
EXTT0=
EXTT1=
EXTT2=
EXTT3=
EXTT4=
EXTT5=
EXTT6=
EXTT7=
EXTT8=
PLAYORDER=
